<?xml version="1.0" standalone="no"?>
<!DOCTYPE svg PUBLIC "-//W3C//DTD SVG 20010904//EN"
 "http://www.w3.org/TR/2001/REC-SVG-20010904/DTD/svg10.dtd">
<svg version="1.0" xmlns="http://www.w3.org/2000/svg"
 width="178.000000pt" height="216.000000pt" viewBox="0 0 178.000000 216.000000"
 preserveAspectRatio="xMidYMid meet">

<g transform="translate(0.000000,216.000000) scale(0.100000,-0.100000)"
fill="#000000" stroke="none">
<path d="M832 2099 c-80 -13 -156 -72 -176 -137 -4 -13 -19 -25 -34 -28 -61
-15 -157 -69 -212 -121 -96 -88 -126 -156 -166 -368 -13 -71 -29 -154 -34
-182 -6 -29 -15 -79 -20 -110 -6 -32 -15 -78 -20 -103 -13 -62 -57 -342 -65
-411 -10 -79 -1 -85 133 -94 74 -5 116 -3 130 4 24 13 25 16 78 363 21 136 41
245 45 243 14 -9 20 -153 9 -239 -13 -103 -14 -110 -116 -456 -43 -146 -78
-278 -78 -295 -1 -25 4 -31 29 -36 17 -4 274 -7 572 -8 517 -1 543 0 552 17 6
10 7 30 4 43 -11 47 -114 385 -132 434 -10 28 -31 101 -46 164 -23 98 -26 131
-23 232 5 177 19 171 52 -23 15 -90 36 -221 46 -292 11 -71 24 -134 29 -139 6
-6 64 -13 130 -15 112 -4 120 -3 141 18 25 25 24 46 -9 220 -11 52 -29 149
-41 215 -11 66 -30 170 -41 230 -65 357 -80 415 -135 500 -58 91 -139 154
-251 195 -48 17 -64 28 -71 49 -34 96 -152 151 -280 130z m151 -96 c33 -17 45
-42 26 -54 -18 -12 -240 -11 -258 0 -12 8 -13 12 -1 26 43 51 159 65 233 28z
m-313 -228 c9 -27 40 -115 68 -195 61 -176 102 -305 102 -328 0 -24 -16 -4
-83 103 -31 50 -81 119 -111 155 l-56 65 0 116 c0 121 7 142 44 137 13 -2 24
-19 36 -53z m355 28 c-11 -44 -128 -377 -135 -386 -8 -9 -150 394 -143 406 2
4 67 7 145 7 l140 0 -7 -27z m143 -108 l3 -131 -56 -64 c-31 -36 -82 -105
-113 -154 -38 -59 -58 -82 -60 -70 -2 18 61 213 144 447 33 91 42 107 59 105
19 -3 20 -12 23 -133z m-656 -23 l-4 -118 55 -64 c57 -68 151 -206 205 -301
l32 -56 0 -394 c0 -217 3 -404 6 -416 4 -16 14 -23 30 -23 l24 0 0 383 c0 218
4 388 10 397 8 13 9 13 14 0 2 -8 7 -207 11 -441 l6 -426 -128 -6 c-226 -12
-363 -9 -369 7 -3 8 24 111 60 228 90 294 103 349 116 484 20 198 -10 337 -93
438 -31 38 -57 30 -58 -16 0 -18 -26 -186 -57 -373 l-57 -340 -68 -3 -69 -3 6
28 c3 15 19 107 35 203 51 296 121 673 135 721 8 25 23 64 34 85 22 44 98 124
116 124 9 0 11 -31 8 -118z m793 87 c78 -69 107 -148 159 -431 20 -106 56
-303 81 -438 25 -135 45 -248 45 -252 0 -5 -31 -8 -69 -8 l-69 0 -6 48 c-9 60
-27 174 -71 443 -19 119 -35 225 -35 237 0 93 -108 -46 -144 -184 -28 -110
-16 -358 24 -477 47 -141 147 -484 143 -490 -3 -5 -94 -6 -202 -3 l-196 5 -3
457 -2 457 36 66 c52 92 145 228 204 295 l50 57 0 125 c0 73 4 124 10 124 5 0
25 -14 45 -31z"/>
</g>
</svg>
